<svg width="462" height="388" viewBox="0 0 462 388" fill="none" xmlns="http://www.w3.org/2000/svg">
<path d="M274.087 104.468C281.739 91.6864 293.049 81.5376 306.525 75.3466C320.001 69.1558 335.019 67.2094 349.61 69.7602C364.202 72.3111 377.692 79.2415 388.31 89.6493C398.928 100.058 406.176 113.458 409.096 128.094C412.017 142.731 410.472 157.914 404.666 171.649C398.86 185.383 389.066 197.024 376.577 205.048C364.089 213.072 349.487 217.108 334.685 216.631C319.883 216.154 305.566 211.187 293.612 202.374" stroke="url(#paint0_linear_280_2)" stroke-width="14"/>
<path d="M228.516 212.736C228.899 227.629 224.783 242.256 216.717 254.701C208.652 267.146 197.011 276.832 183.322 282.492C169.633 288.152 154.529 289.523 139.989 286.42C125.448 283.316 112.15 275.88 101.846 265.083C91.5409 254.286 84.7152 240.637 82.2634 225.928C79.8117 211.22 81.8487 196.145 88.0985 182.68C94.3479 169.215 104.519 157.987 117.275 150.463C130.03 142.939 144.782 139.468 159.597 140.509" stroke="url(#paint1_linear_280_2)" stroke-width="14"/>
<path d="M362.111 100.193L166.69 67.0428C157.044 65.4065 147.897 71.8999 146.261 81.5463L124.464 210.037C122.828 219.684 129.321 228.83 138.967 230.467L334.389 263.617C344.035 265.254 353.182 258.76 354.818 249.114L376.615 120.623C378.251 110.976 371.758 101.83 362.111 100.193Z" fill="url(#paint2_linear_280_2)"/>
<path d="M362.111 100.193L166.69 67.0428C157.044 65.4065 147.897 71.8999 146.261 81.5463L124.464 210.037C122.828 219.684 129.321 228.83 138.967 230.467L334.389 263.617C344.035 265.254 353.182 258.76 354.818 249.114L376.615 120.623C378.251 110.976 371.758 101.83 362.111 100.193Z" fill="url(#paint3_linear_280_2)"/>
<path d="M362.111 100.193L166.69 67.0428C157.044 65.4065 147.897 71.8999 146.261 81.5463L124.464 210.037C122.828 219.684 129.321 228.83 138.967 230.467L334.389 263.617C344.035 265.254 353.182 258.76 354.818 249.114L376.615 120.623C378.251 110.976 371.758 101.83 362.111 100.193Z" stroke="#333333" stroke-width="1.41727"/>
<path d="M348.536 254.808L349.234 254.926L349.353 254.228L372.894 115.454C373.745 110.438 370.368 105.682 365.352 104.831L162.1 70.3523C157.084 69.5014 152.328 72.878 151.477 77.8941L127.936 216.668L127.817 217.366L128.516 217.485L348.536 254.808Z" fill="url(#paint4_linear_280_2)" stroke="#444444" stroke-width="1.41727"/>
<path d="M86.5161 218.605L387.817 269.716L387.604 270.972C386.981 274.644 384.044 277.532 380.331 277.827C379.899 277.862 379.482 277.891 379.093 277.912C375.825 278.087 363.184 276.628 363.184 276.628L110.558 233.773C109.791 233.643 109.026 233.52 108.258 233.39C105.223 232.874 96.8503 231.326 91.4424 229.107C91.2469 229.027 91.0437 228.941 90.835 228.851C87.438 227.383 85.6542 223.686 86.2731 220.038L86.5161 218.605Z" fill="url(#paint5_linear_280_2)"/>
<path d="M86.5161 218.605L387.817 269.716L387.604 270.972C386.981 274.644 384.044 277.532 380.331 277.827C379.899 277.862 379.482 277.891 379.093 277.912C375.825 278.087 363.184 276.628 363.184 276.628L110.558 233.773C109.791 233.643 109.026 233.52 108.258 233.39C105.223 232.874 96.8503 231.326 91.4424 229.107C91.2469 229.027 91.0437 228.941 90.835 228.851C87.438 227.383 85.6542 223.686 86.2731 220.038L86.5161 218.605Z" fill="url(#paint6_linear_280_2)" fill-opacity="0.3"/>
<path d="M214.341 240.895L259.792 248.605V248.605C259.313 251.426 256.638 253.326 253.816 252.847L218.583 246.87C215.762 246.392 213.862 243.716 214.341 240.895V240.895Z" fill="#C4C4C4"/>
<path d="M214.341 240.895L259.792 248.605V248.605C259.313 251.426 256.638 253.326 253.816 252.847L218.583 246.87C215.762 246.392 213.862 243.716 214.341 240.895V240.895Z" fill="url(#paint7_linear_280_2)"/>
<path d="M214.341 240.895L259.792 248.605V248.605C259.313 251.426 256.638 253.326 253.816 252.847L218.583 246.87C215.762 246.392 213.862 243.716 214.341 240.895V240.895Z" fill="url(#paint8_linear_280_2)"/>
<defs>
<linearGradient id="paint0_linear_280_2" x1="337.036" y1="61.6693" x2="337.036" y2="223.669" gradientUnits="userSpaceOnUse">
<stop stop-color="#7A0BC0"/>
<stop offset="1" stop-color="#FA58B6"/>
</linearGradient>
<linearGradient id="paint1_linear_280_2" x1="198.274" y1="282.591" x2="111.52" y2="145.779" gradientUnits="userSpaceOnUse">
<stop stop-color="#7A0BC0"/>
<stop offset="1" stop-color="#FA58B6"/>
</linearGradient>
<linearGradient id="paint2_linear_280_2" x1="149.804" y1="64.8971" x2="355.707" y2="261.112" gradientUnits="userSpaceOnUse">
<stop stop-color="#333333"/>
<stop offset="0.53125" stop-color="#596368"/>
<stop offset="1" stop-color="#333333"/>
</linearGradient>
<linearGradient id="paint3_linear_280_2" x1="264.282" y1="84.3167" x2="236.032" y2="250.851" gradientUnits="userSpaceOnUse">
<stop offset="0.6875" stop-opacity="0.4"/>
<stop offset="0.883584" stop-color="#333333" stop-opacity="0.643"/>
<stop offset="1" stop-opacity="0.94"/>
</linearGradient>
<linearGradient id="paint4_linear_280_2" x1="263.607" y1="88.2904" x2="238.644" y2="235.448" gradientUnits="userSpaceOnUse">
<stop/>
<stop offset="1" stop-opacity="0"/>
</linearGradient>
<linearGradient id="paint5_linear_280_2" x1="387.817" y1="269.717" x2="86.5161" y2="218.605" gradientUnits="userSpaceOnUse">
<stop stop-color="#212121"/>
<stop offset="0.5" stop-color="#555555"/>
<stop offset="1" stop-color="#212121"/>
</linearGradient>
<linearGradient id="paint6_linear_280_2" x1="237.166" y1="244.161" x2="235.337" y2="254.947" gradientUnits="userSpaceOnUse">
<stop stop-color="#666666"/>
<stop offset="0.5" stop-color="#666666"/>
<stop offset="0.541667" stop-opacity="0.5"/>
<stop offset="1"/>
</linearGradient>
<linearGradient id="paint7_linear_280_2" x1="237.066" y1="244.75" x2="236.2" y2="249.859" gradientUnits="userSpaceOnUse">
<stop stop-color="#999999"/>
<stop offset="0.151042" stop-color="#777777"/>
<stop offset="0.609375" stop-color="#444444"/>
<stop offset="0.822917" stop-color="#333333"/>
<stop offset="1" stop-color="#222222"/>
</linearGradient>
<linearGradient id="paint8_linear_280_2" x1="214.341" y1="240.895" x2="259.792" y2="248.605" gradientUnits="userSpaceOnUse">
<stop stop-color="#333333"/>
<stop offset="0.130208" stop-color="#333333" stop-opacity="0.42"/>
<stop offset="0.932292" stop-color="#333333" stop-opacity="0.118947"/>
<stop offset="1" stop-color="#333333" stop-opacity="0.83"/>
</linearGradient>
</defs>
</svg>
