<svg width="130" height="57" viewBox="0 0 130 57" fill="none" xmlns="http://www.w3.org/2000/svg">
<path d="M18.315 32H11.187L13.167 22.661H9.108L7.128 32H0L4.455 11.045H11.616L9.669 20.153H13.695L15.642 11.045H22.836L18.315 32ZM32.1802 17.447C34.7982 17.447 36.7012 17.909 37.8892 18.833C39.1432 19.801 39.7702 21.407 39.7702 23.651C39.7702 25.037 39.5392 26.291 39.0772 27.413C38.6152 28.513 37.9662 29.426 37.1302 30.152C35.4582 31.56 33.0382 32.264 29.8702 32.264C27.1642 32.264 25.2282 31.747 24.0622 30.713C22.8082 29.635 22.1812 28.018 22.1812 25.862C22.1812 24.432 22.4672 23.134 23.0392 21.968C23.6332 20.802 24.4802 19.834 25.5802 19.064C27.1862 17.986 29.3862 17.447 32.1802 17.447ZM29.9362 30.02C30.4862 30.02 30.9592 29.712 31.3552 29.096C31.7732 28.48 32.1032 27.732 32.3452 26.852C32.5872 25.95 32.7632 25.026 32.8732 24.08C33.0052 23.112 33.0712 22.276 33.0712 21.572C33.0712 20.956 33.0052 20.494 32.8732 20.186C32.7632 19.856 32.5102 19.691 32.1142 19.691C31.5202 19.691 31.0032 20.01 30.5632 20.648C30.1452 21.286 29.8042 22.045 29.5402 22.925C29.2762 23.805 29.0782 24.707 28.9462 25.631C28.8362 26.555 28.7812 27.303 28.7812 27.875C28.7812 29.305 29.1662 30.02 29.9362 30.02ZM41.2441 17.81H48.2401L49.3951 27.512L53.3881 17.81H59.6911L60.8131 27.512L64.8061 17.81H68.3041L61.7371 32H54.8401L53.6191 24.806L50.2861 32H43.3891L41.2441 17.81ZM73.9489 32H67.2169L71.9029 9.824H78.6679L73.9489 32ZM77.1158 28.997L87.9728 13.553H79.6568L80.1518 11.045H96.4538L96.1568 13.85L85.3988 29.492H94.0778L93.6158 32H76.5218L77.1158 28.997Z" fill="white"/>
<path d="M93.5543 6.08696C94.2415 4.76812 95.476 4.51152 95.9104 3.26087C96.205 2.41304 96.205 1.47101 95.6159 1C98.0702 3.44928 104.275 6.87826 109.458 1C108.516 2.8087 109.595 3.12081 109.753 3.26087C112.501 5.71014 116.055 12.1913 108.28 18.5217C109.458 23.0435 106.807 36.8913 92.3763 38.3043" stroke="url(#paint0_linear_18_46)" stroke-width="1.5" stroke-linecap="round" stroke-linejoin="round"/>
<path d="M81.3151 39.2682C80.911 39.3588 80.6568 39.76 80.7475 40.1642C80.8381 40.5683 81.2393 40.8225 81.6435 40.7318L81.3151 39.2682ZM98.8556 23.0435L99.5404 22.7376L99.5146 22.6799L99.4795 22.6273L98.8556 23.0435ZM87.9586 21.913L88.5912 22.3159L88.6087 22.2885L88.6237 22.2596L87.9586 21.913ZM75 39.1522L74.9175 38.4067C74.5528 38.4471 74.2708 38.7454 74.2511 39.1118C74.2313 39.4782 74.4796 39.8051 74.8378 39.8844L75 39.1522ZM87.2899 35.1809C87.5939 34.8996 87.6123 34.4251 87.331 34.1211C87.0497 33.817 86.5752 33.7986 86.2712 34.0799L87.2899 35.1809ZM81.6435 40.7318C85.4758 39.8721 90.9888 37.977 95.0319 35.0546C97.0551 33.5921 98.7653 31.833 99.6788 29.7633C100.606 27.663 100.685 25.301 99.5404 22.7376L98.1708 23.3493C99.1464 25.5338 99.0588 27.4533 98.3066 29.1576C97.5408 30.8925 96.0592 32.4611 94.1531 33.8389C90.3376 36.5969 85.0419 38.4322 81.3151 39.2682L81.6435 40.7318ZM99.4795 22.6273C97.4672 19.6102 94.8774 18.4689 92.52 18.5494C90.2174 18.628 88.1707 19.8829 87.2935 21.5665L88.6237 22.2596C89.219 21.1171 90.736 20.1111 92.5712 20.0485C94.3518 19.9877 96.4742 20.8246 98.2316 23.4596L99.4795 22.6273ZM87.326 21.5102C86.4898 22.8232 85.6392 24.5337 84.7558 26.3257C83.8646 28.1337 82.9317 30.0422 81.9119 31.8113C80.8904 33.5832 79.8041 35.175 78.6229 36.3578C77.442 37.5402 76.218 38.2627 74.9175 38.4067L75.0825 39.8976C76.845 39.7025 78.3672 38.7365 79.6842 37.4178C81.0009 36.0994 82.1639 34.3776 83.2114 32.5604C84.2605 30.7405 85.2162 28.7842 86.1012 26.989C86.9941 25.1777 87.8076 23.5463 88.5912 22.3159L87.326 21.5102ZM74.8378 39.8844C76.9755 40.3578 79.4077 39.7968 81.593 38.8514C83.7943 37.899 85.8537 36.5099 87.2899 35.1809L86.2712 34.0799C84.9586 35.2945 83.0421 36.5901 80.9974 37.4747C78.9368 38.3662 76.8532 38.7944 75.1622 38.4199L74.8378 39.8844Z" fill="url(#paint1_linear_18_46)"/>
<defs>
<linearGradient id="paint0_linear_18_46" x1="102.808" y1="1.46341" x2="102.808" y2="38.3043" gradientUnits="userSpaceOnUse">
<stop stop-color="#7A0BC0"/>
<stop offset="1" stop-color="#FA58B6"/>
</linearGradient>
<linearGradient id="paint1_linear_18_46" x1="87.3184" y1="19.5931" x2="87.3184" y2="40" gradientUnits="userSpaceOnUse">
<stop stop-color="#7A0BC0"/>
<stop offset="1" stop-color="#FA58B6"/>
</linearGradient>
</defs>
</svg>
