<svg width="40" height="41" viewBox="0 0 40 41" fill="none" xmlns="http://www.w3.org/2000/svg">
<path d="M19.5543 6.08696C20.2415 4.76812 21.476 4.51152 21.9104 3.26087C22.205 2.41304 22.205 1.47101 21.6159 1C24.0702 3.44928 30.2746 6.87826 35.4581 1C34.5156 2.8087 35.5954 3.12081 35.7526 3.26087C38.5014 5.71014 42.0552 12.1913 34.28 18.5217C35.4581 23.0435 32.8074 36.8913 18.3763 38.3043" stroke="url(#paint0_linear_18_48)" stroke-width="1.5" stroke-linecap="round" stroke-linejoin="round"/>
<path d="M7.31514 39.2682C6.91097 39.3588 6.65682 39.76 6.74748 40.1642C6.83814 40.5683 7.23928 40.8225 7.64345 40.7318L7.31514 39.2682ZM24.8556 23.0435L25.5404 22.7376L25.5146 22.6799L25.4795 22.6273L24.8556 23.0435ZM13.9586 21.913L14.5912 22.3159L14.6087 22.2885L14.6237 22.2596L13.9586 21.913ZM1 39.1522L0.917464 38.4067C0.552765 38.4471 0.270827 38.7454 0.251086 39.1118C0.231345 39.4782 0.479598 39.8051 0.837847 39.8844L1 39.1522ZM13.2899 35.1809C13.5939 34.8996 13.6123 34.4251 13.331 34.1211C13.0497 33.817 12.5752 33.7986 12.2712 34.0799L13.2899 35.1809ZM7.64345 40.7318C11.4758 39.8721 16.9888 37.977 21.0319 35.0546C23.0551 33.5921 24.7653 31.833 25.6788 29.7633C26.6059 27.663 26.6853 25.301 25.5404 22.7376L24.1708 23.3493C25.1464 25.5338 25.0588 27.4533 24.3066 29.1576C23.5408 30.8925 22.0592 32.4611 20.1531 33.8389C16.3376 36.5969 11.0419 38.4322 7.31514 39.2682L7.64345 40.7318ZM25.4795 22.6273C23.4672 19.6102 20.8774 18.4689 18.52 18.5494C16.2174 18.628 14.1707 19.8829 13.2935 21.5665L14.6237 22.2596C15.219 21.1171 16.736 20.1111 18.5712 20.0485C20.3518 19.9877 22.4742 20.8246 24.2316 23.4596L25.4795 22.6273ZM13.326 21.5102C12.4898 22.8232 11.6392 24.5337 10.7558 26.3257C9.86456 28.1337 8.93169 30.0422 7.91186 31.8113C6.89044 33.5832 5.8041 35.175 4.62288 36.3578C3.44204 37.5402 2.21797 38.2627 0.917464 38.4067L1.08254 39.8976C2.84497 39.7025 4.36724 38.7365 5.68423 37.4178C7.00086 36.0994 8.16387 34.3776 9.2114 32.5604C10.2605 30.7405 11.2162 28.7842 12.1012 26.989C12.9941 25.1777 13.8076 23.5463 14.5912 22.3159L13.326 21.5102ZM0.837847 39.8844C2.97551 40.3578 5.40771 39.7968 7.59303 38.8514C9.79428 37.899 11.8537 36.5099 13.2899 35.1809L12.2712 34.0799C10.9586 35.2945 9.04207 36.5901 6.99742 37.4747C4.93683 38.3662 2.85316 38.7944 1.16215 38.4199L0.837847 39.8844Z" fill="url(#paint1_linear_18_48)"/>
<defs>
<linearGradient id="paint0_linear_18_48" x1="28.808" y1="1.46341" x2="28.808" y2="38.3043" gradientUnits="userSpaceOnUse">
<stop stop-color="#7A0BC0"/>
<stop offset="1" stop-color="#FA58B6"/>
</linearGradient>
<linearGradient id="paint1_linear_18_48" x1="13.3184" y1="19.5931" x2="13.3184" y2="40" gradientUnits="userSpaceOnUse">
<stop stop-color="#7A0BC0"/>
<stop offset="1" stop-color="#FA58B6"/>
</linearGradient>
</defs>
</svg>
