<svg width="69" height="73" viewBox="0 0 69 73" fill="none" xmlns="http://www.w3.org/2000/svg">
<path d="M33.5 11C34.6667 8.66667 36.7624 8.21269 37.5 6C38 4.5 38 2.83333 37 2C41.1667 6.33333 51.7 12.4 60.5 2C58.9 5.2 60.7331 5.75221 61 6C65.6667 10.3333 71.7 21.8 58.5 33C60.5 41 56 65.5 31.5 68" stroke="url(#paint0_linear_18_38)" stroke-width="3" stroke-linecap="round" stroke-linejoin="round"/>
<path d="M12.6586 69.5394C11.8519 69.7279 11.3508 70.5348 11.5394 71.3414C11.728 72.1481 12.5348 72.6492 13.3414 72.4606L12.6586 69.5394ZM42.5 41L43.8787 40.4091L43.83 40.2955L43.7634 40.1914L42.5 41ZM24 39L25.2799 39.7822L25.3131 39.7278L25.3416 39.6708L24 39ZM2 69.5L1.82806 68.0099C1.10284 68.0936 0.54318 68.6872 0.502348 69.4161C0.461516 70.145 0.951373 70.7974 1.66271 70.9616L2 69.5ZM23.0412 62.5798C23.6375 62.0047 23.6548 61.0551 23.0798 60.4588C22.5047 59.8625 21.5551 59.8452 20.9588 60.4202L23.0412 62.5798ZM13.3414 72.4606C19.8692 70.9347 29.2656 67.5703 36.165 62.3731C39.6201 59.7705 42.5488 56.6336 44.114 52.9381C45.7021 49.1888 45.8362 44.9766 43.8787 40.4091L41.1213 41.5909C42.7638 45.4234 42.6146 48.7862 41.3516 51.7681C40.0658 54.8039 37.5757 57.5545 34.36 59.9769C27.9178 64.8297 18.9642 68.0653 12.6586 69.5394L13.3414 72.4606ZM43.7634 40.1914C40.3216 34.8136 35.8539 32.7293 31.7342 32.8759C27.7242 33.0186 24.176 35.2939 22.6584 38.3292L25.3416 39.6708C26.324 37.706 28.8258 35.9813 31.8408 35.874C34.7461 35.7707 38.2784 37.1864 41.2366 41.8086L43.7634 40.1914ZM22.7201 38.2178C21.2951 40.5496 19.8475 43.584 18.3487 46.7523C16.835 49.9524 15.2534 53.3241 13.5249 56.4489C11.7929 59.5801 9.95718 62.3808 7.96858 64.4559C5.97815 66.5329 3.9486 67.7652 1.82806 68.0099L2.17194 70.9901C5.2514 70.6348 7.88435 68.8796 10.1345 66.5316C12.3866 64.1817 14.3696 61.1199 16.1501 57.901C17.9341 54.6759 19.5588 51.2101 21.0606 48.0352C22.5775 44.8285 23.9549 41.9504 25.2799 39.7822L22.7201 38.2178ZM1.66271 70.9616C5.37794 71.8189 9.57387 70.7992 13.304 69.1174C17.0683 67.4203 20.5863 64.947 23.0412 62.5798L20.9588 60.4202C18.747 62.553 15.5151 64.8297 12.071 66.3826C8.59279 67.9508 5.12206 68.681 2.33729 68.0384L1.66271 70.9616Z" fill="url(#paint1_linear_18_38)"/>
<defs>
<linearGradient id="paint0_linear_18_38" x1="49.2102" y1="2.81988" x2="49.2102" y2="68" gradientUnits="userSpaceOnUse">
<stop stop-color="#7A0BC0"/>
<stop offset="1" stop-color="#FA58B6"/>
</linearGradient>
<linearGradient id="paint1_linear_18_38" x1="22.9131" y1="34.8955" x2="22.9131" y2="71" gradientUnits="userSpaceOnUse">
<stop stop-color="#7A0BC0"/>
<stop offset="1" stop-color="#FA58B6"/>
</linearGradient>
</defs>
</svg>
